<?xml version="1.0" ?><svg style="enable-background:new 0 0 32 32;" version="1.1" viewBox="0 0 32 32" xml:space="preserve" xmlns="http://www.w3.org/2000/svg" xmlns:xlink="http://www.w3.org/1999/xlink"><style type="text/css">
	.st0{fill:#fdfffc;}
	.st1{fill:none;stroke:#222A30;stroke-width:1.8761;stroke-linejoin:round;stroke-miterlimit:10;}
	.st2{fill:#171715;}
	.st3{fill-rule:evenodd;clip-rule:evenodd;fill:#222A30;}
</style><g id="Layer_1"/><g id="icons"><path class="st0" d="M16,2L16,2C8.3,2,2,8.3,2,16v0c0,7.7,6.3,14,14,14h0c7.7,0,14-6.3,14-14v0C30,8.3,23.7,2,16,2z    M14.7,21.7c0,0.6-0.5,1.2-1.2,1.2H9.6c-0.6,0-1.2-0.5-1.2-1.2V9.8c0-0.6,0.5-1.2,1.2-1.2h3.9c0.6,0,1.2,0.5,1.2,1.2V21.7z    M23.5,16.6c0,0.6-0.5,1.2-1.2,1.2h-3.9c-0.6,0-1.2-0.5-1.2-1.2V9.8c0-0.6,0.5-1.2,1.2-1.2h3.9c0.6,0,1.2,0.5,1.2,1.2V16.6z" id="trello"/></g></svg>